<svg width="24" height="24" viewBox="0 0 64 64" fill="none" xmlns="http://www.w3.org/2000/svg">
    <path
        d="M63.9945 29.2286C63.8942 28.965 60.5734 16.5558 49.4381 9.75039C47.3072 8.44956 40.0047 4.50599 30.4053 6.28265C28.2641 6.67974 17.0354 8.27155 12.8912 18.6097C12.5903 19.3594 8.90274 27.7874 13.9325 35.6814C18.8653 43.4179 27.887 44.3114 30.6198 44.5852C38.4204 45.3589 44.6021 42.7949 46.771 41.518C38.7006 47.0842 31.4016 47.9914 25.2372 46.5913C-0.527142 40.7444 2.43398 3.23939 28.8003 1.33949C30.7617 1.19914 32.8579 1.24023 35.0961 1.49354C60.7117 4.39645 63.9461 28.8452 63.9945 29.2286Z"
        fill="url(#paint0_linear_6698_162484)" />
    <path
        d="M63.9992 29.2328C63.9992 29.2328 63.9992 29.2328 63.9992 29.2294C63.9508 28.846 60.7164 4.39726 35.1042 1.49436C32.8661 1.24104 30.7698 1.19996 28.8084 1.34031C2.4421 3.23678 -0.519005 40.7452 25.2454 46.5921C31.4132 47.9922 38.7087 47.085 46.7791 41.5188C45.9489 42.9977 45.0115 44.9866 42.4032 46.996C35.4813 52.7607 26.4873 52.3157 24.73 52.1548C14.5909 51.2443 3.82234 42.8608 1.55308 31.814C-0.218047 23.1806 4.05756 16.1013 5.20257 14.2665C7.0671 11.2814 9.54046 8.68315 12.4047 6.52994C31.562 -7.87847 59.4503 2.81915 63.6429 26.2649C63.9715 28.1032 64.0061 29.2294 63.9992 29.2328Z"
        fill="url(#paint1_linear_6698_162484)" />
    <path
        d="M0.00390625 34.7684C0.104224 35.032 3.4251 47.4412 14.5604 54.2466C16.6913 55.5474 23.9937 59.491 33.5931 57.7143C35.7344 57.3173 46.963 55.7254 51.1072 45.3873C51.4082 44.6376 55.0957 36.2096 50.066 28.3156C45.1331 20.5791 36.1114 19.6856 33.3786 19.4117C25.5781 18.6381 19.3964 21.2021 17.2275 22.479C25.2979 16.9128 32.5968 16.0056 38.7612 17.4057C64.5256 23.2526 61.5645 60.7576 35.1982 62.6575C33.2368 62.7979 31.1405 62.7568 28.9024 62.5035C3.28673 59.6005 0.0523356 35.1518 0.00390625 34.7684Z"
        fill="url(#paint2_linear_6698_162484)" />
    <path
        d="M0.000756419 34.7667C0.000756419 34.7667 0.000756419 34.7666 0.000756419 34.7701C0.0491857 35.1535 3.28356 59.6022 28.8957 62.5051C31.1339 62.7585 33.2302 62.7995 35.1916 62.6592C61.5579 60.7627 64.519 23.2543 38.7546 17.4074C32.5867 16.0073 25.2912 16.9145 17.2208 22.4807C18.051 21.0018 18.9885 19.0129 21.5968 17.0035C28.5187 11.2388 37.5127 11.6838 39.27 11.8447C49.409 12.7552 60.1776 21.1387 62.4469 32.1855C64.218 40.8189 59.9424 47.8982 58.7974 49.733C56.9328 52.7181 54.4595 55.3163 51.5952 57.4696C32.438 71.878 4.54964 61.1804 0.357047 37.7346C0.0284193 35.8963 -0.00616205 34.7701 0.000756419 34.7667Z"
        fill="url(#paint3_linear_6698_162484)" />
    <defs>
        <linearGradient id="paint0_linear_6698_162484" x1="119" y1="-18" x2="35.694" y2="47.1745"
            gradientUnits="userSpaceOnUse">
            <stop stop-color="#30C862" />
            <stop offset="1" stop-color="#D3F36B" />
        </linearGradient>
        <linearGradient id="paint1_linear_6698_162484" x1="32.5644" y1="-4.32637e-06" x2="100"
            y2="128" gradientUnits="userSpaceOnUse">
            <stop stop-color="#D3F36B" />
            <stop offset="1" stop-color="#30C862" />
        </linearGradient>
        <linearGradient id="paint2_linear_6698_162484" x1="111.61" y1="-2.4373" x2="28.3045"
            y2="62.7373" gradientUnits="userSpaceOnUse">
            <stop stop-color="#30C862" />
            <stop offset="1" stop-color="#D3F36B" />
        </linearGradient>
        <linearGradient id="paint3_linear_6698_162484" x1="31.4355" y1="11.7658" x2="98.8711"
            y2="139.766" gradientUnits="userSpaceOnUse">
            <stop stop-color="#D3F36B" />
            <stop offset="1" stop-color="#30C862" />
        </linearGradient>
    </defs>
</svg>