<svg width="154" height="32" viewBox="0 0 154 32" fill="none" xmlns="http://www.w3.org/2000/svg">
<path d="M102.548 23V10.652H107.156C108.452 10.652 109.556 10.868 110.468 11.3C111.38 11.732 112.076 12.404 112.556 13.316C113.048 14.216 113.294 15.386 113.294 16.826C113.294 18.242 113.048 19.406 112.556 20.318C112.076 21.23 111.38 21.908 110.468 22.352C109.556 22.784 108.452 23 107.156 23H102.548ZM104.258 21.524H107.12C107.804 21.524 108.416 21.44 108.956 21.272C109.496 21.092 109.958 20.822 110.342 20.462C110.726 20.102 111.014 19.64 111.206 19.076C111.41 18.5 111.512 17.816 111.512 17.024V16.664C111.512 15.848 111.41 15.158 111.206 14.594C111.014 14.018 110.726 13.55 110.342 13.19C109.97 12.83 109.514 12.566 108.974 12.398C108.434 12.218 107.816 12.128 107.12 12.128H104.258V21.524ZM121.311 23.216C120.027 23.216 118.923 22.982 117.999 22.514C117.087 22.046 116.379 21.338 115.875 20.39C115.383 19.442 115.137 18.254 115.137 16.826C115.137 15.386 115.383 14.198 115.875 13.262C116.379 12.314 117.087 11.606 117.999 11.138C118.923 10.67 120.027 10.436 121.311 10.436C122.595 10.436 123.693 10.67 124.605 11.138C125.529 11.606 126.237 12.314 126.729 13.262C127.233 14.198 127.485 15.386 127.485 16.826C127.485 18.254 127.233 19.442 126.729 20.39C126.237 21.338 125.529 22.046 124.605 22.514C123.693 22.982 122.595 23.216 121.311 23.216ZM121.311 21.74C121.983 21.74 122.589 21.65 123.129 21.47C123.681 21.29 124.143 21.008 124.515 20.624C124.899 20.228 125.193 19.736 125.397 19.148C125.601 18.548 125.703 17.84 125.703 17.024V16.646C125.703 15.818 125.601 15.11 125.397 14.522C125.193 13.922 124.899 13.43 124.515 13.046C124.143 12.65 123.681 12.362 123.129 12.182C122.589 12.002 121.983 11.912 121.311 11.912C120.627 11.912 120.015 12.002 119.475 12.182C118.935 12.362 118.473 12.65 118.089 13.046C117.705 13.43 117.411 13.922 117.207 14.522C117.015 15.11 116.919 15.818 116.919 16.646V17.024C116.919 17.84 117.015 18.548 117.207 19.148C117.411 19.736 117.705 20.228 118.089 20.624C118.473 21.008 118.935 21.29 119.475 21.47C120.015 21.65 120.627 21.74 121.311 21.74ZM135.226 23.216C133.966 23.216 132.898 22.988 132.022 22.532C131.146 22.064 130.474 21.362 130.006 20.426C129.55 19.478 129.322 18.278 129.322 16.826C129.322 14.678 129.844 13.076 130.888 12.02C131.932 10.964 133.384 10.436 135.244 10.436C136.3 10.436 137.236 10.61 138.052 10.958C138.868 11.294 139.504 11.81 139.96 12.506C140.428 13.19 140.662 14.054 140.662 15.098H138.934C138.934 14.378 138.778 13.784 138.466 13.316C138.166 12.848 137.74 12.5 137.188 12.272C136.636 12.032 135.988 11.912 135.244 11.912C134.38 11.912 133.636 12.08 133.012 12.416C132.388 12.752 131.914 13.274 131.59 13.982C131.266 14.678 131.104 15.578 131.104 16.682V17.06C131.104 18.152 131.266 19.046 131.59 19.742C131.914 20.426 132.382 20.93 132.994 21.254C133.618 21.578 134.368 21.74 135.244 21.74C136.012 21.74 136.672 21.626 137.224 21.398C137.788 21.17 138.22 20.822 138.52 20.354C138.832 19.874 138.988 19.274 138.988 18.554H140.662C140.662 19.622 140.422 20.498 139.942 21.182C139.474 21.866 138.832 22.376 138.016 22.712C137.2 23.048 136.27 23.216 135.226 23.216ZM147.584 23.216C146.912 23.216 146.264 23.15 145.64 23.018C145.028 22.886 144.482 22.676 144.002 22.388C143.522 22.088 143.138 21.704 142.85 21.236C142.574 20.768 142.436 20.192 142.436 19.508C142.436 19.448 142.436 19.388 142.436 19.328C142.448 19.268 142.454 19.208 142.454 19.148H144.182C144.182 19.184 144.176 19.244 144.164 19.328C144.164 19.4 144.164 19.466 144.164 19.526C144.164 20.006 144.308 20.414 144.596 20.75C144.884 21.086 145.28 21.338 145.784 21.506C146.3 21.662 146.882 21.74 147.53 21.74C147.818 21.74 148.118 21.722 148.43 21.686C148.754 21.65 149.06 21.59 149.348 21.506C149.648 21.41 149.912 21.29 150.14 21.146C150.38 20.99 150.566 20.804 150.698 20.588C150.842 20.36 150.914 20.084 150.914 19.76C150.914 19.352 150.794 19.016 150.554 18.752C150.326 18.476 150.02 18.254 149.636 18.086C149.252 17.906 148.814 17.75 148.322 17.618C147.842 17.474 147.344 17.336 146.828 17.204C146.312 17.072 145.808 16.922 145.316 16.754C144.836 16.574 144.404 16.358 144.02 16.106C143.636 15.842 143.324 15.518 143.084 15.134C142.856 14.75 142.742 14.282 142.742 13.73C142.742 13.214 142.844 12.752 143.048 12.344C143.264 11.936 143.576 11.594 143.984 11.318C144.404 11.03 144.92 10.814 145.532 10.67C146.144 10.514 146.846 10.436 147.638 10.436C148.286 10.436 148.886 10.508 149.438 10.652C150.002 10.784 150.494 10.994 150.914 11.282C151.346 11.558 151.682 11.912 151.922 12.344C152.162 12.776 152.282 13.298 152.282 13.91V14.126H150.59V13.856C150.59 13.448 150.464 13.1 150.212 12.812C149.96 12.524 149.612 12.302 149.168 12.146C148.736 11.99 148.244 11.912 147.692 11.912C146.972 11.912 146.372 11.984 145.892 12.128C145.412 12.26 145.052 12.458 144.812 12.722C144.584 12.974 144.47 13.262 144.47 13.586C144.47 13.958 144.584 14.27 144.812 14.522C145.052 14.774 145.364 14.984 145.748 15.152C146.132 15.308 146.57 15.452 147.062 15.584C147.554 15.716 148.052 15.854 148.556 15.998C149.072 16.13 149.57 16.286 150.05 16.466C150.542 16.634 150.98 16.85 151.364 17.114C151.76 17.366 152.072 17.69 152.3 18.086C152.528 18.47 152.642 18.944 152.642 19.508C152.642 20.384 152.426 21.098 151.994 21.65C151.562 22.19 150.968 22.586 150.212 22.838C149.456 23.09 148.58 23.216 147.584 23.216Z" fill="#ACAEAF"/>
<path d="M0.802749 13.0307C1.33849 11.9918 2.06421 11.1942 2.98335 10.6345C3.90249 10.0748 4.92776 9.79578 6.06256 9.79578C7.05359 9.79578 7.91967 9.99604 8.66251 10.3948C9.40535 10.7936 9.99928 11.2969 10.4477 11.9045V10.0114H13.8265V23.285H10.4477V21.3441C10.0164 21.9671 9.42076 22.4823 8.66251 22.8897C7.90426 23.297 7.02962 23.5007 6.03859 23.5007C4.92091 23.5007 3.90249 23.2131 2.98335 22.638C2.06421 22.0629 1.33849 21.2534 0.802749 20.2058C0.267013 19.16 0 17.9585 0 16.5995C0 15.2576 0.268725 14.068 0.802749 13.0307ZM9.96676 14.5524C9.64669 13.9687 9.21536 13.522 8.67278 13.2105C8.13019 12.8989 7.54653 12.7432 6.9235 12.7432C6.30047 12.7432 5.72536 12.8955 5.19818 13.1985C4.67101 13.5014 4.2431 13.9447 3.91618 14.5284C3.58926 15.1121 3.42495 15.8018 3.42495 16.6012C3.42495 17.4005 3.58926 18.0988 3.91618 18.6979C4.2431 19.297 4.67443 19.7557 5.21017 20.0758C5.7459 20.3958 6.31587 20.555 6.9235 20.555C7.54653 20.555 8.13019 20.3993 8.67278 20.0877C9.21536 19.7762 9.64669 19.3295 9.96676 18.7458C10.2868 18.1622 10.446 17.4638 10.446 16.6491C10.446 15.8344 10.2868 15.1343 9.96676 14.5524Z" fill="#26282B"/>
<path d="M17.3351 7.86676C16.9432 7.49191 16.748 7.02464 16.748 6.46494C16.748 5.90695 16.9432 5.43968 17.3351 5.06312C17.7271 4.68828 18.2183 4.5 18.8088 4.5C19.3993 4.5 19.8906 4.68828 20.2825 5.06312C20.6745 5.43797 20.8696 5.90524 20.8696 6.46494C20.8696 7.02464 20.6745 7.49191 20.2825 7.86676C19.8906 8.2416 19.3993 8.42987 18.8088 8.42987C18.2183 8.42987 17.7271 8.24331 17.3351 7.86676ZM20.4623 10.0114V23.285H17.1075V10.0114H20.4623Z" fill="#26282B"/>
<path d="M31.6276 23.2853L27.1243 17.6319V23.2853H23.7695V5.55469H27.1243V15.6413L31.5813 10.0117H35.9426L30.0974 16.6716L35.9905 23.2836H31.6276V23.2853Z" fill="#26282B"/>
<path d="M50.0024 17.6547H40.2992C40.3796 18.6132 40.7151 19.3646 41.3056 19.9072C41.8961 20.4497 42.6236 20.7219 43.4862 20.7219C44.7323 20.7219 45.6189 20.1862 46.1461 19.1164H49.7644C49.381 20.395 48.6468 21.4442 47.5599 22.2675C46.473 23.0908 45.1396 23.5016 43.5581 23.5016C42.2795 23.5016 41.1345 23.2174 40.1195 22.6509C39.1045 22.0843 38.3137 21.2816 37.7472 20.2426C37.1806 19.2037 36.8965 18.0073 36.8965 16.6482C36.8965 15.2755 37.1755 14.0688 37.7352 13.0299C38.2949 11.9909 39.0771 11.1933 40.0835 10.6336C41.0899 10.0739 42.247 9.79492 43.5581 9.79492C44.8196 9.79492 45.9492 10.0671 46.9488 10.6097C47.9467 11.1522 48.7221 11.9242 49.2732 12.9221C49.8243 13.9199 50.0999 15.0667 50.0999 16.3607C50.0982 16.8399 50.0657 17.2713 50.0024 17.6547ZM46.6236 15.4022C46.6082 14.5395 46.2967 13.8498 45.6891 13.3294C45.0814 12.8108 44.3386 12.5506 43.4605 12.5506C42.6304 12.5506 41.9303 12.8022 41.3638 13.3055C40.7973 13.8087 40.4498 14.507 40.3214 15.4022H46.6236Z" fill="#26282B"/>
<path d="M64.7836 17.6547H55.0804C55.1609 18.6132 55.4964 19.3646 56.0869 19.9072C56.6774 20.4497 57.4048 20.7219 58.2675 20.7219C59.5135 20.7219 60.4001 20.1862 60.9273 19.1164H64.5457C64.1623 20.395 63.428 21.4442 62.3411 22.2675C61.2542 23.0908 59.9209 23.5016 58.3394 23.5016C57.0608 23.5016 55.9157 23.2174 54.9007 22.6509C53.8857 22.0843 53.095 21.2816 52.5284 20.2426C51.9619 19.2037 51.6777 18.0073 51.6777 16.6482C51.6777 15.2755 51.9567 14.0688 52.5164 13.0299C53.0761 11.9909 53.8583 11.1933 54.8648 10.6336C55.8712 10.0739 57.0283 9.79492 58.3394 9.79492C59.6008 9.79492 60.7305 10.0671 61.7301 10.6097C62.7279 11.1522 63.5033 11.9242 64.0545 12.9221C64.6056 13.9199 64.8812 15.0667 64.8812 16.3607C64.8794 16.8399 64.8469 17.2713 64.7836 17.6547ZM61.4066 15.4022C61.3912 14.5395 61.0797 13.8498 60.472 13.3294C59.8644 12.8108 59.1216 12.5506 58.2435 12.5506C57.4134 12.5506 56.7133 12.8022 56.1468 13.3055C55.5802 13.8087 55.2328 14.507 55.1044 15.4022H61.4066Z" fill="#26282B"/>
<path d="M67.2617 13.0303C67.7975 11.9914 68.5266 11.1937 69.4543 10.634C70.3803 10.0743 71.4107 9.79534 72.5455 9.79534C73.4082 9.79534 74.2297 9.98362 75.0137 10.3585C75.7959 10.7333 76.4189 11.2331 76.8827 11.8561V5.55566H80.2854V23.2846H76.8827V21.3197C76.4668 21.9752 75.8849 22.5024 75.1335 22.9012C74.3821 23.3 73.5126 23.5003 72.5215 23.5003C71.4039 23.5003 70.3803 23.2127 69.4543 22.6376C68.5283 22.0625 67.7975 21.2529 67.2617 20.2054C66.726 19.1596 66.459 17.958 66.459 16.599C66.459 15.2571 66.726 14.0675 67.2617 13.0303ZM76.4258 14.5519C76.1057 13.9683 75.6743 13.5215 75.1318 13.21C74.5892 12.8985 74.0055 12.7427 73.3825 12.7427C72.7595 12.7427 72.1843 12.8951 71.6572 13.198C71.13 13.501 70.7021 13.9443 70.3752 14.528C70.0482 15.1116 69.8839 15.8014 69.8839 16.6007C69.8839 17.4001 70.0482 18.0984 70.3752 18.6975C70.7021 19.2965 71.1334 19.7552 71.6692 20.0753C72.2049 20.3954 72.7749 20.5546 73.3825 20.5546C74.0055 20.5546 74.5892 20.3988 75.1318 20.0873C75.6743 19.7758 76.1057 19.3291 76.4258 18.7454C76.7458 18.1617 76.905 17.4634 76.905 16.6487C76.905 15.8339 76.7441 15.1339 76.4258 14.5519Z" fill="#26282B"/>
<path d="M86.0114 22.6509C84.9896 22.0843 84.1868 21.2816 83.6032 20.2426C83.0195 19.2037 82.7285 18.0073 82.7285 16.6482C82.7285 15.2909 83.028 14.0928 83.6271 13.0538C84.2262 12.0149 85.0443 11.2139 86.0833 10.6456C87.1222 10.0791 88.2793 9.79492 89.5579 9.79492C90.8365 9.79492 91.9935 10.0791 93.0325 10.6456C94.0697 11.2121 94.8896 12.0149 95.4886 13.0538C96.0877 14.0928 96.3872 15.2909 96.3872 16.6482C96.3872 18.0056 96.0791 19.2037 95.4647 20.2426C94.8502 21.2816 94.0183 22.0843 92.9725 22.6509C91.9267 23.2174 90.756 23.5016 89.462 23.5016C88.1834 23.5016 87.0332 23.2174 86.0114 22.6509ZM91.1736 20.1348C91.7094 19.8387 92.1356 19.3971 92.4556 18.8049C92.7757 18.2144 92.9349 17.4955 92.9349 16.6482C92.9349 15.3868 92.6028 14.4163 91.9404 13.7368C91.278 13.0573 90.4667 12.7184 89.5082 12.7184C88.5497 12.7184 87.747 13.0573 87.1 13.7368C86.453 14.4163 86.1295 15.3868 86.1295 16.6482C86.1295 17.9097 86.4444 18.8802 87.076 19.5597C87.7076 20.2392 88.5018 20.5781 89.4603 20.5781C90.0679 20.5781 90.6379 20.4309 91.1736 20.1348Z" fill="#26282B"/>
</svg>
