<svg xmlns="http://www.w3.org/2000/svg" width="135" height="135" viewBox="0 0 135 135" fill="none">
    <path
        d="M98.98 111.91V94.52L108.56 103.21C105.72 106.47 102.5 109.39 98.98 111.91ZM58.81 121.5L86.93 94.92V118.42C80.77 120.81 74.07 122.13 67.08 122.13C64.27 122.13 61.51 121.92 58.81 121.51V121.5ZM12.35 72.86L41.9 99.36L71.61 71.46L86.95 56.96V78.34L45.37 117.64C27.48 109.93 14.47 92.99 12.36 72.85L12.35 72.86ZM35.71 21.89L35.73 39.36L25.93 30.58C28.83 27.31 32.11 24.39 35.71 21.89ZM35.77 77.68L12.94 57.2C14.03 51.23 16.08 45.6 18.93 40.46L35.75 55.55L35.77 77.68ZM75.49 12.68L63.07 24.42L47.77 38.93L47.75 15.55C53.77 13.28 60.29 12.04 67.09 12.04C69.95 12.04 72.76 12.26 75.5 12.68H75.49ZM121.26 76.77C120.21 82.63 118.24 88.17 115.49 93.24L98.97 78.27V56.57L121.26 76.77ZM121.78 60.98L92.87 34.77L63.34 62.69L47.81 77.28L47.79 55.52L71.35 33.17L88.92 16.56C106.66 24.26 119.57 41.03 121.78 60.98ZM114.52 19.64C101.84 6.98 85 0 67.08 0C49.16 0 32.32 6.98 19.65 19.65C6.98 32.32 0 49.16 0 67.08C0 85 6.98 101.84 19.65 114.51C32.32 127.18 49.17 134.16 67.08 134.16C84.99 134.16 101.84 127.18 114.51 114.51C127.18 101.84 134.16 84.99 134.16 67.08C134.16 49.17 127.18 32.32 114.51 19.65L114.52 19.64Z"
        fill="#24282C" />
</svg>